# xmcd
#
# Track frame offsets:
#	150
#	26922
#	57440
#	82727
#	101102
#	143532
#	193145
#	245290
#
# Disc length: 3494 seconds
#
# Revision: 0
# Processed by: cddbd v1.4PL0 Copyright (c) Steve Scherf et al.
# Submitted via: dBpowerAMP V4.0
#
DISCID=660da408
DTITLE=Rudy Rotta - Live in Kansas City
DYEAR=1900
DGENRE=Blues
TTITLE0=Hold on
TTITLE1=Loner and Goner
TTITLE2=You Don't Have To Go
TTITLE3=Crossroads
TTITLE4=Deep Down
TTITLE5=The Last Time
TTITLE6=More and More
TTITLE7=Hideaway
EXTD=
EXTT0=
EXTT1=
EXTT2=
EXTT3=
EXTT4=
EXTT5=
EXTT6=
EXTT7=
PLAYORDER=
